{
	"asset":{
		"version":"2.0",
		"generator":"Houdini GLTF 2.0 Exporter"
	},
	"accessors":[
		{
			"bufferView":0,
			"componentType":5123,
			"count":1512,
			"type":"SCALAR",
			"min":[0
			],
			"max":[1511
			]
		},
		{
			"bufferView":1,
			"componentType":5126,
			"count":1512,
			"type":"VEC3",
			"min":[-34.9397469,0.738975286,-34.8243332
			],
			"max":[34.5141716,99.2610245,34.824337
			]
		},
		{
			"bufferView":2,
			"componentType":5126,
			"count":1512,
			"type":"SCALAR",
			"min":[0.0475963093
			],
			"max":[0.952358186
			]
		},
		{
			"bufferView":3,
			"componentType":5126,
			"count":1512,
			"type":"VEC3",
			"min":[1,1,1
			],
			"max":[1,1,1
			]
		},
		{
			"bufferView":4,
			"componentType":5126,
			"count":1512,
			"type":"VEC2",
			"min":[0,0.263669968
			],
			"max":[0.999746144,1
			]
		},
		{
			"bufferView":5,
			"componentType":5126,
			"count":1512,
			"type":"VEC3",
			"min":[-0.999453723,-1,-0.996658981
			],
			"max":[0.988290668,1,0.996658981
			]
		},
		{
			"bufferView":6,
			"componentType":5125,
			"count":1512,
			"type":"SCALAR",
			"min":[0
			],
			"max":[0
			]
		},
		{
			"bufferView":7,
			"componentType":5126,
			"count":1512,
			"type":"SCALAR",
			"min":[0.577243805
			],
			"max":[0.577243805
			]
		}
	],
	"buffers":[
		{
			"uri":"barrel_data.bin",
			"byteLength":87696,
			"name":"main_buffer"
		}
	],
	"bufferViews":[
		{
			"buffer":0,
			"byteLength":3024,
			"target":34963
		},
		{
			"buffer":0,
			"byteOffset":3024,
			"byteLength":18144,
			"target":34962
		},
		{
			"buffer":0,
			"byteOffset":21168,
			"byteLength":6048,
			"target":34962
		},
		{
			"buffer":0,
			"byteOffset":27216,
			"byteLength":18144,
			"target":34962
		},
		{
			"buffer":0,
			"byteOffset":45360,
			"byteLength":12096,
			"target":34962
		},
		{
			"buffer":0,
			"byteOffset":57456,
			"byteLength":18144,
			"target":34962
		},
		{
			"buffer":0,
			"byteOffset":75600,
			"byteLength":6048,
			"target":34962
		},
		{
			"buffer":0,
			"byteOffset":81648,
			"byteLength":6048,
			"target":34962
		}
	],
	"nodes":[
		{
			"name":"forcy_barrel1",
			"mesh":0
		}
	],
	"meshes":[
		{
			"primitives":[
				{
					"attributes":{
						"_coverage":7,
						"_numnonpacked":6,
						"NORMAL":5,
						"COLOR_0":3,
						"TEXCOORD_0":4,
						"_vis_falloff":2,
						"POSITION":1
					},
					"indices":0,
					"material":0
				}
			]
		}
	],
	"materials":[
		{
			"name":"Material_2",
			"pbrMetallicRoughness":{
				"roughnessFactor":0.65200001,
				"baseColorTexture":{
					"index":0
				},
				"metallicRoughnessTexture":{
					"index":1
				}
			},
			"normalTexture":{
				"index":2
			}
		}
	],
	"scenes":[
		{
			"nodes":[0
			]
		}
	],
	"textures":[
		{
			"source":0
		},
		{
			"source":1
		},
		{
			"source":2
		}
	],
	"images":[
		{
			"uri":"test_basecolor.png",
			"mimeType":"image/png"
		},
		{
			"uri":"test_roughness.png",
			"mimeType":"image/png"
		},
		{
			"uri":"test_normal.png",
			"mimeType":"image/png"
		}
	],
	"scene":0
}
